<?xml version="1.0" standalone="no"?><!DOCTYPE svg PUBLIC "-//W3C//DTD SVG 1.1//EN" "http://www.w3.org/Graphics/SVG/1.1/DTD/svg11.dtd"><svg class="icon" width="200px" height="200.00px" viewBox="0 0 1024 1024" version="1.1" xmlns="http://www.w3.org/2000/svg"><path d="M640 384C616.533333 384 597.333333 364.8 597.333333 341.333333 597.333333 317.866667 616.533333 298.666667 640 298.666667 663.466667 298.666667 682.666667 317.866667 682.666667 341.333333 682.666667 364.8 663.466667 384 640 384M384 384C360.533333 384 341.333333 364.8 341.333333 341.333333 341.333333 317.866667 360.533333 298.666667 384 298.666667 407.466667 298.666667 426.666667 317.866667 426.666667 341.333333 426.666667 364.8 407.466667 384 384 384M687.786667 186.453333 777.386667 96.853333 742.4 61.44 643.84 160C604.16 139.946667 559.36 128 512 128 464.213333 128 419.84 139.946667 380.16 160L281.6 61.44 246.613333 96.853333 336.213333 186.453333C261.973333 240.64 213.333333 327.68 213.333333 426.666667L213.333333 469.333333 810.666667 469.333333 810.666667 426.666667C810.666667 327.68 762.026667 240.64 687.786667 186.453333M213.333333 682.666667C213.333333 847.36 346.88 981.333333 512 981.333333 677.12 981.333333 810.666667 847.786667 810.666667 682.666667L810.666667 512 213.333333 512 213.333333 682.666667Z" fill="#8a8a8a" /></svg>